<svg width="48" height="48" viewBox="0 0 48 48" fill="none" xmlns="http://www.w3.org/2000/svg">
<circle cx="24" cy="24" r="24" fill="#E0E0E0"/>
<path d="M38.3999 39.2729V35.2001C38.3999 33.0398 37.6413 30.968 36.2911 29.4404C34.9408 27.9129 33.1095 27.0547 31.1999 27.0547H16.7999C14.8904 27.0547 13.059 27.9129 11.7087 29.4404C10.3585 30.968 9.59991 33.0398 9.59991 35.2001V39.2729L12.6545 41.4547L17.0181 42.7638L21.2366 43.3262C22.7806 43.5321 24.3455 43.5248 25.8875 43.3045L29.6726 42.7638L34.4726 41.4547L38.3999 39.2729Z" fill="#F2F2F2"/>
<path d="M24 25.3089C28.579 25.3089 32.2909 21.5969 32.2909 17.018C32.2909 12.439 28.579 8.72705 24 8.72705C19.4211 8.72705 15.7091 12.439 15.7091 17.018C15.7091 21.5969 19.4211 25.3089 24 25.3089Z" fill="#F2F2F2"/>
</svg>
